<svg id="pointilles_terre_pins" data-name="pointilles terre pins" xmlns="http://www.w3.org/2000/svg" viewBox="0 0 191.54 189.88"><defs><style>.cls-1{fill:#fff;}</style></defs><title>icon-bet-white</title><circle class="cls-1" cx="63.28" cy="77.29" r="6.53"/><circle class="cls-1" cx="96.73" cy="77.29" r="6.53"/><path class="cls-1" d="M370.8,252.23a78,78,0,0,0-18-8.74c-7.25-26.68-22-35.16-33.24-37.53-17-3.54-34.56,4.9-42.75,13.34-15.34-.47-27.77,3.62-36.92,12.18-11.43,10.69-14.35,25.33-15.1,32.3-10.76,5.28-25.82,17.93-23,37.43,3.7,25.89,22.53,37.69,38.47,37.69H271.2a28.74,28.74,0,1,0,55.59,0H348c17.42,0,45.05-13.12,45.05-48.32C393,275.18,385.32,261.92,370.8,252.23ZM299,363a16.9,16.9,0,0,1-12.73-28.12l.26-.29c.37-.4.75-.78,1.15-1.14l.24-.22a17.06,17.06,0,0,1,3.23-2.2l.08,0a16.11,16.11,0,0,1,1.64-.74l.36-.13c.47-.17,1-.32,1.45-.45a3.45,3.45,0,0,1,.46-.12,14.23,14.23,0,0,1,1.45-.27l.48-.08a17,17,0,0,1,3.86,0l.48.08c.48.07,1,.15,1.44.26l.48.13a14.79,14.79,0,0,1,1.43.45l.38.13c.54.22,1.08.46,1.6.72l.11.06a17,17,0,0,1,3.21,2.19l.27.25c.39.35.76.72,1.12,1.1l.28.32a14.32,14.32,0,0,1,1.08,1.36A16.93,16.93,0,0,1,299,363ZM348,327.12H320.58c-.16-.19-.35-.35-.51-.53-.42-.44-.83-.88-1.27-1.3-.28-.27-.57-.52-.86-.78-.45-.39-.91-.78-1.39-1.14-.29-.23-.58-.45-.89-.67-.51-.37-1-.71-1.58-1.05-.28-.17-.56-.35-.85-.51-.59-.34-1.2-.65-1.82-.95-.26-.13-.51-.26-.77-.37-.68-.3-1.37-.57-2.07-.82-.23-.08-.45-.17-.68-.24-.74-.25-1.5-.45-2.27-.63L305,318c-.8-.17-1.61-.29-2.43-.39-.19,0-.37-.07-.56-.09-1-.1-2-.16-3-.16s-2,.06-3,.16c-.19,0-.37.06-.55.09-.82.1-1.64.22-2.43.39l-.59.16c-.78.18-1.54.38-2.29.63-.23.07-.44.16-.66.24-.71.25-1.41.51-2.09.82l-.75.36c-.63.3-1.24.62-1.84,1-.29.16-.56.34-.84.51-.54.34-1.08.68-1.59,1.06-.3.21-.59.43-.88.65-.48.37-.95.76-1.4,1.16-.29.25-.57.5-.85.77-.44.42-.86.86-1.27,1.3-.17.18-.36.34-.52.53H240.26c-11,0-24.1-8.63-26.81-27.58-2.54-17.81,18.21-26,19.08-26.29a5.88,5.88,0,0,0,3.83-5.51c0-.17.13-16.91,11.61-27.66,7.26-6.79,17.69-9.79,31.06-8.89a5.94,5.94,0,0,0,5.1-2.34c4.13-5.51,19.12-14.28,33.05-11.36,12.22,2.56,20.64,13.33,25,32a5.87,5.87,0,0,0,4.3,4.36c.35.09,34.7,9,34.7,36.71C381.22,320.41,356.58,327.12,348,327.12Z" transform="translate(-201.46 -205.13)"/><circle class="cls-1" cx="130.18" cy="77.29" r="6.53"/><path class="cls-1" d="M341.42,375.43a9.79,9.79,0,1,0,9.79,9.79A9.79,9.79,0,0,0,341.42,375.43Z" transform="translate(-201.46 -205.13)"/></svg>