<svg id="pointilles_terre_pins" data-name="pointilles terre pins" xmlns="http://www.w3.org/2000/svg" viewBox="0 0 179.76 187.31"><defs><style>.cls-1{fill:#1b1b1b;}</style></defs><title>icon-edit-black</title><path class="cls-1" d="M287.62,255.44h52.82a3.78,3.78,0,0,0,0-7.55H287.62a3.78,3.78,0,1,0,0,7.55Z" transform="translate(-220.36 -214.6)"/><path class="cls-1" d="M399.28,293.49a99.63,99.63,0,0,0-9.11-13.82l-.24-.3a99.32,99.32,0,0,0-7.81-8.8,103.15,103.15,0,0,0-8.94-7.92l-.44-.44-.19-.06a105.63,105.63,0,0,0-10.16-6.85V221.47a6.88,6.88,0,0,0-6.87-6.87h-83a6.91,6.91,0,0,0-4.86,2l-45.28,45.28a6.91,6.91,0,0,0-2,4.86V395a6.88,6.88,0,0,0,6.87,6.87H355.52a6.88,6.88,0,0,0,6.87-6.87V337.4q17.85-17.89,35.72-35.76A6.88,6.88,0,0,0,399.28,293.49Zm-24.69-15.4c1.77,1.78,3.48,3.64,5.1,5.56l-61.5,61.54c-.18-.24-.38-.46-.57-.7s-.44-.55-.66-.82a48.74,48.74,0,0,0-3.56-4c-.86-.86-1.75-1.68-2.65-2.47-.26-.24-.54-.46-.8-.68-.65-.55-1.3-1.08-2-1.6l-.46-.37,45-45L369,273C371.05,274.71,372.86,276.37,374.59,278.09Zm-55.4,85.26-38.34,8.5,8.52-38.32.27.09c.57.18,1.15.39,1.76.62l.35.13c.72.28,1.47.59,2.23.93l.62.29c.6.28,1.21.58,1.84.9l.69.36c.83.45,1.67.92,2.52,1.44a47.37,47.37,0,0,1,8.42,6.7,45.18,45.18,0,0,1,3.72,4.3c.93,1.21,1.82,2.46,2.64,3.77h0c.7,1.14,1.31,2.26,1.87,3.35.17.34.33.66.48,1,.37.76.7,1.5,1,2.21.14.33.29.67.41,1,.3.76.57,1.48.8,2.17.06.18.14.38.2.56Zm37.34-99.21c2.24,1.33,4.39,2.72,6.48,4.2l-37.28,37.31L301,330.37l-.21-.11c-1.11-.6-2.19-1.13-3.25-1.61l-.55-.26c-1.07-.47-2.09-.89-3.08-1.26l-.26-.1,34.93-35h0q9.81-9.78,19.58-19.58Zm-87.78-33.58V263H236.33Zm83,160.71H231V270.53h41.52a3.77,3.77,0,0,0,3.78-3.77V225.24h75.45v33l-8.9,8.91-18.47,18.47h-74.5a3.78,3.78,0,0,0,0,7.55h67l-30.16,30.19H249.87a3.77,3.77,0,0,0,0,7.54h32.35l-6.72,30.19H249.87a3.77,3.77,0,0,0,0,7.54h24L272.19,376a3.66,3.66,0,0,0,2.1,4.22l.27.12a3.92,3.92,0,0,0,1.26.25h.05a3.72,3.72,0,0,0,.81-.09l48-10.64a3.87,3.87,0,0,0,1.38-.63c.13-.1.22-.24.34-.35a3.42,3.42,0,0,0,.65-.72l.06-.06a3.44,3.44,0,0,0,.74-.58l23.86-23.86Zm1.1-59.38-27.16,27.16-.06-.15c-.38-1-.82-2.12-1.33-3.25l-.06-.15c-.51-1.13-1.09-2.3-1.73-3.5-.06-.1-.1-.2-.15-.3l62-62q2.25,3.16,4.21,6.49Q370.67,314,352.85,331.89Z" transform="translate(-220.36 -214.6)"/></svg>