<svg id="pointilles_terre_pins" data-name="pointilles terre pins" xmlns="http://www.w3.org/2000/svg" viewBox="0 0 185.97 186.16"><defs><style>.cls-1{fill:#fff;}</style></defs><title>icon-result-white</title><path class="cls-1" d="M392.5,360.52l-40.08-40.46,1.33-1.9a78.28,78.28,0,1,0-17.67,18l1.9-1.33.38.38,39.7,39.7a10.26,10.26,0,0,0,17.48-7.22A10,10,0,0,0,392.5,360.52Zm-56-41.79a66.23,66.23,0,0,1-47.3,19.56,67.06,67.06,0,0,1-47.3-19.56,66.29,66.29,0,0,1-19.56-47.11,67,67,0,0,1,19.56-47.3,66.23,66.23,0,0,1,47.3-19.57,66.78,66.78,0,0,1,47.3,114Z" transform="translate(-209.57 -191.83)"/><path class="cls-1" d="M318.5,248.7,278,284.14l-14.61-15.2a5.72,5.72,0,0,0-8.29,7.88l18.42,19.08a5.64,5.64,0,0,0,4.83,1.62,5.2,5.2,0,0,0,2.88-1.37l44.37-39.06a5.51,5.51,0,0,0,1.94-3.92,4.9,4.9,0,0,0-1.12-3.87A5.61,5.61,0,0,0,318.5,248.7Z" transform="translate(-209.57 -191.83)"/></svg>