<svg id="pointilles_terre_pins" data-name="pointilles terre pins" xmlns="http://www.w3.org/2000/svg" viewBox="0 0 191.54 189.88"><defs><style>.cls-1{fill:#1b1b1b;}</style></defs><title>icon-bet-black</title><circle class="cls-1" cx="63.28" cy="77.29" r="6.53"/><circle class="cls-1" cx="96.73" cy="77.29" r="6.53"/><path class="cls-1" d="M370.8,262.08a78,78,0,0,0-18-8.74c-7.25-26.69-22-35.17-33.24-37.53-17-3.54-34.56,4.9-42.75,13.33-15.34-.46-27.77,3.63-36.92,12.19-11.43,10.69-14.35,25.33-15.1,32.29-10.76,5.28-25.82,17.94-23,37.43,3.7,25.9,22.53,37.69,38.47,37.69H271.2a28.74,28.74,0,1,0,55.59,0H348c17.42,0,45.05-13.11,45.05-48.31C393,285,385.32,271.77,370.8,262.08ZM299,372.86a16.93,16.93,0,0,1-13.84-26.72c.35-.49.72-.95,1.11-1.4.09-.1.18-.19.26-.29.37-.39.75-.77,1.15-1.13l.24-.22a17.6,17.6,0,0,1,3.23-2.21l.08,0c.53-.27,1.08-.51,1.64-.73l.36-.13a14.37,14.37,0,0,1,1.45-.46l.46-.12c.48-.11,1-.2,1.45-.27l.48-.07a15.58,15.58,0,0,1,3.86,0l.48.07c.48.08,1,.16,1.44.27l.48.12c.48.13,1,.28,1.43.45l.38.14a16.32,16.32,0,0,1,1.6.72l.11.06a17,17,0,0,1,3.21,2.19l.27.25c.39.35.76.71,1.12,1.1l.28.31a15.86,15.86,0,0,1,1.08,1.37A16.92,16.92,0,0,1,299,372.86ZM348,337H320.58c-.16-.19-.35-.35-.51-.53-.42-.45-.83-.88-1.27-1.3-.28-.27-.57-.53-.86-.78-.45-.4-.91-.78-1.39-1.15-.29-.22-.58-.45-.89-.66-.51-.37-1-.72-1.58-1.05l-.85-.52c-.59-.34-1.2-.65-1.82-1l-.77-.37c-.68-.3-1.37-.56-2.07-.81l-.68-.25c-.74-.24-1.5-.44-2.27-.62l-.6-.16c-.8-.17-1.61-.29-2.43-.39-.19,0-.37-.07-.56-.09a28.87,28.87,0,0,0-6.07,0l-.55.08c-.82.11-1.64.23-2.43.4-.2,0-.39.11-.59.15-.78.19-1.54.39-2.29.63l-.66.25c-.71.25-1.41.51-2.09.81l-.75.37c-.63.3-1.24.61-1.84,1-.29.16-.56.33-.84.51-.54.33-1.08.68-1.59,1.05-.3.21-.59.43-.88.66-.48.37-.95.75-1.4,1.15l-.85.77c-.44.43-.86.86-1.27,1.31-.17.18-.36.34-.52.53H240.26c-11,0-24.1-8.63-26.81-27.58-2.54-17.81,18.21-26,19.08-26.29a5.89,5.89,0,0,0,3.83-5.51c0-.17.13-16.91,11.61-27.66,7.26-6.79,17.69-9.79,31.06-8.89a6,6,0,0,0,5.1-2.34c4.13-5.51,19.12-14.28,33.05-11.36,12.22,2.56,20.64,13.33,25,32a5.87,5.87,0,0,0,4.3,4.36c.35.09,34.7,9,34.7,36.71C381.22,330.25,356.58,337,348,337Z" transform="translate(-201.46 -214.98)"/><circle class="cls-1" cx="130.18" cy="77.29" r="6.53"/><path class="cls-1" d="M341.42,385.28a9.79,9.79,0,1,0,9.79,9.79A9.79,9.79,0,0,0,341.42,385.28Z" transform="translate(-201.46 -214.98)"/></svg>