<svg id="pointilles_terre_pins" data-name="pointilles terre pins" xmlns="http://www.w3.org/2000/svg" viewBox="0 0 179.76 187.31"><defs><style>.cls-1{fill:#fff;}</style></defs><title>icon-edit-white</title><path class="cls-1" d="M291.62,213.59h52.82a3.78,3.78,0,0,0,0-7.55H291.62a3.78,3.78,0,1,0,0,7.55Z" transform="translate(-224.36 -172.75)"/><path class="cls-1" d="M403.28,251.64a99.63,99.63,0,0,0-9.11-13.82l-.24-.3a100.76,100.76,0,0,0-7.81-8.8,103.15,103.15,0,0,0-8.94-7.92l-.44-.43-.19-.06a102.07,102.07,0,0,0-10.16-6.85V179.62a6.88,6.88,0,0,0-6.87-6.87h-83a6.91,6.91,0,0,0-4.86,2L226.37,220a6.91,6.91,0,0,0-2,4.86V353.19a6.88,6.88,0,0,0,6.87,6.88H359.52a6.88,6.88,0,0,0,6.87-6.88V295.55q17.85-17.9,35.72-35.75A6.89,6.89,0,0,0,403.28,251.64Zm-24.69-15.39c1.77,1.77,3.48,3.63,5.1,5.56l-61.5,61.53c-.18-.24-.38-.46-.57-.7s-.44-.55-.66-.82a50.44,50.44,0,0,0-3.56-4c-.86-.86-1.75-1.68-2.65-2.47l-.8-.68c-.65-.55-1.3-1.08-2-1.59-.16-.12-.3-.26-.46-.38l45-45L373,231.15C375.05,232.86,376.86,234.52,378.59,236.25Zm-55.4,85.26L284.85,330l8.52-38.32.27.09c.57.19,1.15.39,1.76.62l.35.13c.72.28,1.47.6,2.23.94l.62.28c.6.28,1.21.58,1.84.9l.69.37c.83.44,1.67.91,2.52,1.43a47.43,47.43,0,0,1,8.42,6.71,44,44,0,0,1,3.72,4.3c.93,1.21,1.82,2.45,2.64,3.77h0c.7,1.14,1.31,2.26,1.87,3.35.17.34.33.67.48,1,.37.75.7,1.49,1,2.2.14.33.29.67.41,1,.3.76.57,1.48.8,2.17l.2.57Zm37.34-99.22c2.24,1.33,4.39,2.73,6.48,4.2L329.73,263.8,305,288.52l-.21-.11c-1.11-.59-2.19-1.13-3.25-1.61l-.55-.26c-1.07-.47-2.09-.88-3.08-1.25l-.26-.11,34.93-35h0q9.81-9.78,19.58-19.57Zm-87.78-33.57v32.42H240.33Zm83,160.7H235V228.68h41.52a3.77,3.77,0,0,0,3.78-3.77V183.4h75.45v33l-8.9,8.9q-9.23,9.24-18.47,18.47h-74.5a3.77,3.77,0,1,0,0,7.54h67L290.68,281.5H253.87a3.78,3.78,0,0,0,0,7.55h32.35l-6.72,30.18H253.87a3.78,3.78,0,0,0,0,7.55h24l-1.64,7.36a3.73,3.73,0,0,0,1,3.49,4,4,0,0,0,1.09.74l.27.11a3.67,3.67,0,0,0,1.26.25h.05a3.72,3.72,0,0,0,.81-.09l48-10.64a3.7,3.7,0,0,0,1.38-.63,3.64,3.64,0,0,0,.34-.34,3.74,3.74,0,0,0,.65-.73l.06-.06a3.44,3.44,0,0,0,.74-.58l23.86-23.85Zm1.1-59.38L329.69,317.2l-.06-.15c-.38-1-.82-2.11-1.33-3.25l-.06-.15c-.51-1.12-1.09-2.3-1.73-3.49-.06-.11-.1-.2-.15-.31l62-62c1.5,2.1,2.9,4.27,4.21,6.48Q374.67,272.18,356.85,290Z" transform="translate(-224.36 -172.75)"/></svg>