<svg id="pointilles_terre_pins" data-name="pointilles terre pins" xmlns="http://www.w3.org/2000/svg" viewBox="0 0 185.97 186.16"><defs><style>.cls-1{fill:#1b1b1b;}</style></defs><title>icon-result-black</title><path class="cls-1" d="M392.5,389.36,352.42,348.9l1.33-1.9a78.21,78.21,0,1,0-17.67,18.05l1.9-1.33.38.38,39.7,39.7a10.26,10.26,0,0,0,17.48-7.22A10,10,0,0,0,392.5,389.36Zm-56-41.79a66.2,66.2,0,0,1-47.3,19.57,67,67,0,0,1-47.3-19.57,66.27,66.27,0,0,1-19.56-47.11,67.06,67.06,0,0,1,19.56-47.3,66.26,66.26,0,0,1,47.3-19.56,66.77,66.77,0,0,1,47.3,114Z" transform="translate(-209.57 -220.68)"/><path class="cls-1" d="M318.5,277.54,278,313l-14.61-15.21a5.72,5.72,0,0,0-8.29,7.89l18.42,19.08a5.67,5.67,0,0,0,4.83,1.62,5.26,5.26,0,0,0,2.88-1.37l44.37-39.06a5.51,5.51,0,0,0,1.94-3.92,4.9,4.9,0,0,0-1.12-3.87A5.62,5.62,0,0,0,318.5,277.54Z" transform="translate(-209.57 -220.68)"/></svg>